name rise38.3101peak57.3503fall81.6963.mot
datacolumns 19
datarows 21
range 14.78828400000000 14.82161700000000
endheader
time	ground_force1_vx	ground_force1_vy	ground_force1_vz	ground_force1_px	ground_force1_py	ground_force1_pz	ground_force2_vx	ground_force2_vy	ground_force2_vz	ground_force2_px	ground_force2_py	ground_force2_pz	ground_torque1_x	ground_torque1_y	ground_torque1_z	ground_torque2_x	ground_torque2_y	ground_torque2_z	
14.78828400000000	6.31404800000000	692.47491000000002	43.09444500000000	0.23165200000000	0.00000000000000	0.10630200000000	0.00000000000000	0.00000000000000	0.00000000000000	0.00000000000000	0.00000000000000	0.00000000000000	0.00000000000000	18.32274500000000	0.00000000000000	0.00000000000000	0.00000000000000	0.00000000000000	
14.78995300000000	5.84223500000000	692.74737700000003	43.06766200000000	0.23073300000000	0.00000000000000	0.10628600000000	0.00000000000000	0.00000000000000	0.00000000000000	0.00000000000000	0.00000000000000	0.00000000000000	0.00000000000000	18.36121200000000	0.00000000000000	0.00000000000000	0.00000000000000	0.00000000000000	
14.79161300000000	5.36319400000000	693.06134599999996	43.04258300000000	0.22983400000000	0.00000000000000	0.10627000000000	0.00000000000000	0.00000000000000	0.00000000000000	0.00000000000000	0.00000000000000	0.00000000000000	0.00000000000000	18.40383500000000	0.00000000000000	0.00000000000000	0.00000000000000	0.00000000000000	
14.79328000000000	4.87669800000000	693.41672000000005	43.01901000000000	0.22895600000000	0.00000000000000	0.10625200000000	0.00000000000000	0.00000000000000	0.00000000000000	0.00000000000000	0.00000000000000	0.00000000000000	0.00000000000000	18.45052100000000	0.00000000000000	0.00000000000000	0.00000000000000	0.00000000000000	
14.79494900000000	4.38254000000000	693.81344899999999	42.99676100000000	0.22809500000000	0.00000000000000	0.10623200000000	0.00000000000000	0.00000000000000	0.00000000000000	0.00000000000000	0.00000000000000	0.00000000000000	0.00000000000000	18.50118000000000	0.00000000000000	0.00000000000000	0.00000000000000	0.00000000000000	
14.79661900000000	3.88052200000000	694.25152900000000	42.97566700000000	0.22725200000000	0.00000000000000	0.10621200000000	0.00000000000000	0.00000000000000	0.00000000000000	0.00000000000000	0.00000000000000	0.00000000000000	0.00000000000000	18.55572100000000	0.00000000000000	0.00000000000000	0.00000000000000	0.00000000000000	
14.79828300000000	3.37046600000000	694.73100299999999	42.95557400000000	0.22642300000000	0.00000000000000	0.10619100000000	0.00000000000000	0.00000000000000	0.00000000000000	0.00000000000000	0.00000000000000	0.00000000000000	0.00000000000000	18.61405400000000	0.00000000000000	0.00000000000000	0.00000000000000	0.00000000000000	
14.79994900000000	2.85220700000000	695.25196000000005	42.93634600000000	0.22560900000000	0.00000000000000	0.10616900000000	0.00000000000000	0.00000000000000	0.00000000000000	0.00000000000000	0.00000000000000	0.00000000000000	0.00000000000000	18.67609400000000	0.00000000000000	0.00000000000000	0.00000000000000	0.00000000000000	
14.80161400000000	2.32560000000000	695.81453499999998	42.91786000000000	0.22480500000000	0.00000000000000	0.10614700000000	0.00000000000000	0.00000000000000	0.00000000000000	0.00000000000000	0.00000000000000	0.00000000000000	0.00000000000000	18.74175500000000	0.00000000000000	0.00000000000000	0.00000000000000	0.00000000000000	
14.80328600000000	1.79051500000000	696.41890500000000	42.90001200000000	0.22401200000000	0.00000000000000	0.10612400000000	0.00000000000000	0.00000000000000	0.00000000000000	0.00000000000000	0.00000000000000	0.00000000000000	0.00000000000000	18.81095200000000	0.00000000000000	0.00000000000000	0.00000000000000	0.00000000000000	
14.80494800000000	1.24684200000000	697.06528900000001	42.88271400000000	0.22322700000000	0.00000000000000	0.10610000000000	0.00000000000000	0.00000000000000	0.00000000000000	0.00000000000000	0.00000000000000	0.00000000000000	0.00000000000000	18.88360500000000	0.00000000000000	0.00000000000000	0.00000000000000	0.00000000000000	
14.80661500000000	0.69449000000000	697.75394500000004	42.86589400000000	0.22244900000000	0.00000000000000	0.10607600000000	0.00000000000000	0.00000000000000	0.00000000000000	0.00000000000000	0.00000000000000	0.00000000000000	0.00000000000000	18.95963300000000	0.00000000000000	0.00000000000000	0.00000000000000	0.00000000000000	
14.80827800000000	0.13338800000000	698.48516800000004	42.84950000000000	0.22167500000000	0.00000000000000	0.10605200000000	0.00000000000000	0.00000000000000	0.00000000000000	0.00000000000000	0.00000000000000	0.00000000000000	0.00000000000000	19.03896000000000	0.00000000000000	0.00000000000000	0.00000000000000	0.00000000000000	
14.80995100000000	-0.43651500000000	699.25928399999998	42.83349700000000	0.22090500000000	0.00000000000000	0.10602800000000	0.00000000000000	0.00000000000000	0.00000000000000	0.00000000000000	0.00000000000000	0.00000000000000	0.00000000000000	19.12150900000000	0.00000000000000	0.00000000000000	0.00000000000000	0.00000000000000	
14.81161700000000	-1.01524800000000	700.07664699999998	42.81786700000000	0.22013500000000	0.00000000000000	0.10600300000000	0.00000000000000	0.00000000000000	0.00000000000000	0.00000000000000	0.00000000000000	0.00000000000000	0.00000000000000	19.20720800000000	0.00000000000000	0.00000000000000	0.00000000000000	0.00000000000000	
14.81328400000000	-1.60281800000000	700.93763700000000	42.80261100000000	0.21936600000000	0.00000000000000	0.10597900000000	0.00000000000000	0.00000000000000	0.00000000000000	0.00000000000000	0.00000000000000	0.00000000000000	0.00000000000000	19.29598600000000	0.00000000000000	0.00000000000000	0.00000000000000	0.00000000000000	
14.81494800000000	-2.19921100000000	701.84265200000004	42.78774900000000	0.21859400000000	0.00000000000000	0.10595500000000	0.00000000000000	0.00000000000000	0.00000000000000	0.00000000000000	0.00000000000000	0.00000000000000	0.00000000000000	19.38777200000000	0.00000000000000	0.00000000000000	0.00000000000000	0.00000000000000	
14.81661400000000	-2.80439000000000	702.79210499999999	42.77332100000000	0.21781900000000	0.00000000000000	0.10593100000000	0.00000000000000	0.00000000000000	0.00000000000000	0.00000000000000	0.00000000000000	0.00000000000000	0.00000000000000	19.48250000000000	0.00000000000000	0.00000000000000	0.00000000000000	0.00000000000000	
14.81827800000000	-3.41829400000000	703.78641700000003	42.75938200000000	0.21704000000000	0.00000000000000	0.10590700000000	0.00000000000000	0.00000000000000	0.00000000000000	0.00000000000000	0.00000000000000	0.00000000000000	0.00000000000000	19.58010500000000	0.00000000000000	0.00000000000000	0.00000000000000	0.00000000000000	
14.81994500000000	-4.04083800000000	704.82601499999998	42.74601100000000	0.21625400000000	0.00000000000000	0.10588400000000	0.00000000000000	0.00000000000000	0.00000000000000	0.00000000000000	0.00000000000000	0.00000000000000	0.00000000000000	19.68052400000000	0.00000000000000	0.00000000000000	0.00000000000000	0.00000000000000	
14.82161700000000	-4.67191400000000	705.91132000000005	42.73330100000000	0.21546000000000	0.00000000000000	0.10586100000000	0.00000000000000	0.00000000000000	0.00000000000000	0.00000000000000	0.00000000000000	0.00000000000000	0.00000000000000	19.78369400000000	0.00000000000000	0.00000000000000	0.00000000000000	0.00000000000000	
